# xmcd
#
# Track frame offsets:
#	150
#	22015
#	32523
#	50060
#	56117
#	73396
#	81428
#	98254
#	118539
#	130615
#	143835
#	150037
#	168103
#	186319
#
# Disc length: 2772 seconds
#
# Revision: 0
# Processed by: cddbd v1.5.2PL0 Copyright (c) Steve Scherf et al.
# Submitted via: EasyCDDAExtractor 15.2.5.1
#
DISCID=b50ad20e
DTITLE=오니시 유카리 (Onishi Yukari and Shinsekai) - Onishi Yukari and Shinsekai (2007)
DYEAR=2007
DGENRE=Pop
TTITLE0=비오는 날의 잘못 (雨の日のあやまち)
TTITLE1=키이한토 (キィハントー)
TTITLE2=사랑은 발군 (恋はバツグン)
TTITLE3=신세계의 테마 (新世界のテーマ)
TTITLE4=신 미치의 선창 (新ミッチー音頭)
TTITLE5=킹스톤 배드걸 (ザ・キングストーン・バッドガール)
TTITLE6=사랑의 맛 (恋の味 )
TTITLE7=끓는 마음 (滾り（たぎり）) 
TTITLE8=사랑의 고-카트 (恋のゴーカート)
TTITLE9=난키 바운드 (유카리의 여름휴가) (ナンキバウンド（ユカリの夏休み）) 
TTITLE10=Z최종편 (Z最終便)
TTITLE11=북국행 기차로 (北国行きで)
TTITLE12=속 신 미치의 선창 (続・新ミッチー音頭) (Bonus Track)
TTITLE13=구 비오는 날의 잘못 (旧・雨の日のあやまち) (Bonus Track)
EXTD=
EXTT0=
EXTT1=
EXTT2=
EXTT3=
EXTT4=
EXTT5=
EXTT6=
EXTT7=
EXTT8=
EXTT9=
EXTT10=
EXTT11=
EXTT12=
EXTT13=
PLAYORDER=
